<svg xmlns="http://www.w3.org/2000/svg" viewBox="0 0 1469.32 212.15"><g id="Layer_2" data-name="Layer 2"><g id="READ_ME" data-name="READ ME"><g id="NORMAL_LOGOTYPE" data-name="NORMAL LOGOTYPE"><path d="M344.24,138.29,353.69,120Q384.05,61,414.38,2.09a3.28,3.28,0,0,1,3.42-2q25.77.07,51.55,0c2.23,0,2.77.75,2.77,2.84q-.06,103.23,0,206.45c0,2.12-.6,2.83-2.8,2.82-14-.09-27.94-.12-41.91,0-2.63,0-3.14-.89-3.14-3.29q.09-61.44,0-122.87c0-1.17-.11-2.35-.17-3.52l-.64-.22c-.59,1-1.23,1.87-1.75,2.85q-21.21,40.26-42.38,80.53c-7.79,14.81-15.62,29.59-23.35,44.42a3.28,3.28,0,0,1-3.41,2.08c-6.07-.1-12.15-.15-18.22,0-2.18.06-3.23-.77-4.2-2.58Q305,162.14,279.73,114.78q-8-14.93-15.89-29.84a6.68,6.68,0,0,0-2.12-2.56c-.05,1-.15,2.09-.15,3.13q0,61.58,0,123.14c0,3.44,0,3.44-3.36,3.44-13.62,0-27.25,0-40.87,0-2.19,0-2.77-.68-2.77-2.81q.08-103.23,0-206.45c0-2.38.8-2.86,3-2.85Q244,.15,270.39,0a3.81,3.81,0,0,1,4,2.39q22.68,44.47,45.52,88.86,11.4,22.2,22.83,44.39C343.1,136.34,343.49,137,344.24,138.29Z"/><path d="M671.58,96.35c5.3,3.09,10.77,5.62,15.48,9.17,11.21,8.46,16.79,20.18,18.22,34a68.88,68.88,0,0,1-4.63,33.85c-6.55,15.92-18.76,25.86-34.5,31.87a90.54,90.54,0,0,1-31.67,6.29c-41.47.32-83,.37-124.42.56-1.86,0-2.37-.65-2.36-2.42.07-8.16,0-16.32,0-24.47V3.76c0-3.69,0-3.69,3.64-3.69,33.15,0,66.3-.18,99.45.09C625,.27,639.14,2,652.69,6.76c13.13,4.62,24.35,11.74,31.64,24,5.79,9.72,7.45,20.4,6.93,31.51-.68,14.44-6.28,26.13-19.17,33.64A2.71,2.71,0,0,0,671.58,96.35Zm-76.65,69.31h31a13,13,0,0,0,2.34,0c5.41-1,10.92-1.74,16.17-3.31A16.68,16.68,0,0,0,655,152.93c4.88-11,1.54-25.86-12.44-30.73a48,48,0,0,0-15-2.62c-22.37-.28-44.74-.1-67.11-.17-2.35,0-3.17.66-3.15,3.09q.15,20.16,0,40.32c0,2.34.76,2.91,3,2.89C571.86,165.61,583.4,165.66,594.93,165.66ZM590,45.48c-10,0-19.95,0-29.92,0-2,0-2.76.57-2.75,2.65q.12,17.56,0,35.13c0,1.9.65,2.65,2.55,2.63,20.81-.16,41.62-.17,62.43-.49a22.08,22.08,0,0,0,13.27-4.72c5.75-4.46,7.3-10.59,7.08-17.55s-3.27-11.89-9.62-14.72c-5.08-2.27-10.5-2.84-16-2.87C608.07,45.44,599,45.48,590,45.48Z"/><path d="M1162.58,129.09c21,27.71,41.77,55.11,62.79,82.86-1.24.06-2,.14-2.73.14-18.22,0-36.44,0-54.66,0a4.27,4.27,0,0,1-4-2.11c-15-22-30-44-45-66-1.56-2.31-3.15-3.34-6.07-3.31-18,.15-35.92.12-53.88,0-2.62,0-3.39.71-3.37,3.36.1,21.61,0,43.22.11,64.82,0,2.48-.63,3.24-3.18,3.22q-21.74-.18-43.47,0c-2.28,0-3.18-.47-3.18-3q.11-103.08,0-206.17c0-2.24.59-3,2.92-3,39.74.07,79.49-.18,119.23.16C1144.19.32,1160,3,1174.18,11.51c14.69,8.81,22.91,22.16,26.16,38.62,2.63,13.37,3.07,26.86-.78,40.14q-7.92,27.28-34.47,37.66C1164.38,128.21,1163.7,128.57,1162.58,129.09Zm-71-29.56c10.41,0,20.82.09,31.23,0a47.9,47.9,0,0,0,9.77-1.12c9.34-2.06,16.48-7,19.11-16.65a45.49,45.49,0,0,0,1.22-11.55c.08-9.89-5.3-17.71-14.42-21.48a46.2,46.2,0,0,0-17.78-3.19c-20.65,0-41.3,0-62-.06-2.32,0-3.13.57-3.11,3q.16,24.08,0,48.16c0,2.53.89,3,3.14,2.95C1069.69,99.48,1080.62,99.53,1091.56,99.53Z"/><path d="M.06,106.17Q.06,54.75,0,3.34C0,.69.69,0,3.34,0q86.3.12,172.6.06c3.36,0,3.37,0,3.37,3.44,0,12.75-.08,25.51.06,38.27,0,2.63-.69,3.37-3.34,3.37Q115.11,45,54.19,45.09c-5.6,0-4.52,0-4.54,4.66-.06,10.07,0,20.13,0,30.2,0,3.41,0,3.42,3.35,3.42H175.6c3.7,0,3.71,0,3.71,3.62,0,10.67-.08,21.35.05,32,0,2.54-.75,3.2-3.23,3.2q-60.66-.1-121.32,0c-.87,0-1.74.06-2.6,0-2.05-.17-2.63.73-2.62,2.75q.12,18.73,0,37.49c0,2.16.62,2.79,2.78,2.78,14.41-.09,28.81,0,43.22,0,26.81,0,53.63,0,80.44-.06,2.63,0,3.38.65,3.35,3.31-.14,13.54-.11,27.08,0,40.62,0,2.26-.41,3.15-3,3.15Q89.7,212,3,212.15c-2.55,0-3-.87-3-3.14Q.11,157.59.06,106.17Z"/><path d="M1330.26,112.45l-18.34,15.13c-3.54,2.93-7,5.94-10.65,8.77a4.75,4.75,0,0,0-1.94,4.19q.08,34.11,0,68.21c0,3.34,0,3.34-3.46,3.34-14.58,0-29.16-.05-43.73,0-2.29,0-2.94-.62-2.94-2.92q.09-103.08,0-206.17c0-2.46.74-3,3.09-3q22,.15,44,0c2.35,0,3.1.57,3.09,3-.09,24.73-.05,49.46-.05,74.19v3.83c3.79-3.12,7-5.72,10.13-8.35q42.6-35.46,85.23-70.89a7.81,7.81,0,0,1,4.63-1.68c21.26-.11,42.52-.08,63.78-.08h3c-3.38,2.86-6.18,5.24-9,7.61q-43.68,36.62-87.39,73.18c-1.9,1.59-1.81,2.54-.4,4.33q33.7,42.53,67.29,85.12,15.88,20.12,31.78,40.21c.27.34.47.72.88,1.35-.83.09-1.45.21-2.07.21-20.65,0-41.3,0-62,.06a4.22,4.22,0,0,1-3.8-2.1q-34-46.69-68-93.37C1332.49,115.36,1331.49,114.07,1330.26,112.45Z"/><path d="M979,212.09h-3c-17.79,0-35.58,0-53.37,0a3.83,3.83,0,0,1-4.1-2.6c-7.08-15.34-14.32-30.61-21.4-45.95-1-2.1-2.1-3-4.49-3q-47.39.12-94.76,0a4.31,4.31,0,0,0-4.55,2.87c-7.2,15.39-14.54,30.7-21.75,46.08-.85,1.81-1.8,2.56-3.89,2.55-16.92-.09-33.84,0-50.76,0h-2.56a16.91,16.91,0,0,1,.64-1.86L773.63,94.8q18.6-36.63,37.16-73.27c3.26-6.42,6.55-12.82,9.74-19.27A3.45,3.45,0,0,1,824.12,0q21.74.12,43.47,0A3.3,3.3,0,0,1,871,2.12q33.54,65.34,67.18,130.63,19.86,38.61,39.75,77.2C978.21,210.48,978.45,211,979,212.09Zm-165.5-90.61h63.8L846.17,54.56l-.76,0C834.83,76.74,824.25,98.88,813.46,121.48Z"/></g></g></g></svg>